<?xml version="1.0" encoding="UTF-8"?><svg xmlns="http://www.w3.org/2000/svg" viewBox="0 0 103 103"><defs><style>.d{fill:#fff;}.e{fill:#428bdf;}</style></defs><g id="a"/><g id="b"><g id="c"><g><circle class="e" cx="51.5" cy="51.5" r="51.5"/><path class="d" d="M26.74,54.2c.42-.58,.92-1.01,1.54-1.31,.54,0,1.08,0,1.62,0h0c.43,.3,.85,.59,1.28,.89h0c.83,1.24,.85,2.42,.11,3.71-.22,.38-.54,.72-.61,1.19-.37,.32-.51,.74-.46,1.23h0s-.02,.09-.02,.14c-.66,1.55-.64,3.11,0,4.66h0c.44,1.91,1.43,3.43,2.93,4.59,.91,.91,1.96,1.48,3.23,1.56,1.19,.49,2.38,.46,3.56-.01,.94,0,1.72-.43,2.44-1.03h0l.67-.46h0c.43-.17,.74-.48,.95-.91h0c.12-.11,.26-.21,.35-.35,2.09-3.11,4.18-6.22,6.26-9.34,1.9-2.84,3.75-5.71,5.68-8.52,.96-1.4,2.62-1.64,3.83-.7,1.31,1.02,1.56,2.78,.53,4.23-.78,1.1-1.47,2.26-2.23,3.37-2.9,4.27-5.69,8.62-8.58,12.9-1.92,2.85-2.53,5.84-1.21,9.14,1.22,3.02,3.43,4.75,6.46,5.16,3.12,.43,5.75-.71,7.63-3.39,2.07-2.95,3.99-6.01,5.99-9.02,3.52-5.32,7.05-10.64,10.58-15.96,3.01-4.54,6-9.09,9.04-13.59,1.54-2.28,2.9-4.59,2.54-7.56-.39-3.29-1.97-5.67-4.84-7.06-1.58-1.14-5.06-1.14-6.66-.02h0l-.93,.53c-.53,.07-.85,.45-1.14,.86h0c-.16,.14-.34,.27-.49,.43-1.12,1.26-1.95,2.75-2.89,4.16-2.28,3.41-4.55,6.83-6.79,10.27-.99,1.51-2.96,1.56-3.97,.72-1.14-.94-1.45-2.65-.58-4.02,.63-1,1.06-2.08,1.31-3.25,.83-3.9-1.44-8.48-4.83-9.69-.4-.45-.92-.55-1.47-.51-1.14-.46-2.28-.48-3.43-.01h-.06l-.06,.02c-.57-.07-1.06,.11-1.49,.5h0c-1.48,.65-2.68,1.64-3.53,3.09-.71,.83-1.36,1.71-1.79,2.75h0l-.46,.71h0c-.52,.36-.82,.89-1.02,1.5h0c-.8,1.17-1.6,2.33-2.39,3.5-1.94,2.9-3.85,5.81-5.8,8.69-.72,1.05-1.88,1.37-3.01,.94-1.35-.51-1.9-1.5-1.86-3.36,.32-.63,.77-1.19,.98-1.88,.48-.34,.74-.85,.95-1.4h0c.34-.51,.68-1.03,1.03-1.53,3.01-4.3,1.46-10.95-3.42-13-.41-.44-.92-.55-1.48-.51-1.14-.46-2.29-.5-3.43-.02h-.06l-.06,.02c-.56-.04-1.08,.05-1.48,.51h0c-1.56,.57-2.7,1.71-3.62,3.1-2.89,4.34-5.77,8.69-8.63,13.05-1.98,3.03-2.24,6.29-.48,9.46,3.06,5.52,10.1,5.9,13.79,.84Z"/></g></g></g></svg>