<?xml version="1.0" encoding="UTF-8"?><svg xmlns="http://www.w3.org/2000/svg" viewBox="0 0 104.03 75.66"><defs><style>.d{fill:#fff;}</style></defs><g id="a"/><g id="b"><g id="c"><path class="d" d="M19.67,35.91c.56-.77,1.21-1.33,2.03-1.72,.71,0,1.42,0,2.13,0h0c.56,.39,1.12,.78,1.68,1.17h0c1.1,1.63,1.12,3.17,.15,4.87-.29,.5-.71,.94-.8,1.56-.48,.42-.67,.97-.6,1.62h0c-.02,.06-.03,.12-.03,.19-.87,2.04-.85,4.08,0,6.12h0c.57,2.52,1.88,4.51,3.85,6.03,1.2,1.19,2.58,1.95,4.24,2.05,1.56,.64,3.12,.6,4.68-.01,1.24,.01,2.26-.56,3.2-1.35h0l.87-.6h0c.57-.22,.97-.63,1.24-1.19h0c.15-.15,.34-.28,.46-.45,2.75-4.09,5.49-8.18,8.22-12.27,2.49-3.73,4.93-7.5,7.47-11.2,1.27-1.85,3.44-2.16,5.04-.91,1.72,1.34,2.05,3.65,.7,5.56-1.02,1.45-1.94,2.97-2.93,4.43-3.81,5.61-7.48,11.33-11.28,16.96-2.53,3.75-3.33,7.68-1.59,12.01,1.6,3.97,4.5,6.24,8.5,6.79,4.1,.56,7.56-.94,10.03-4.45,2.72-3.87,5.25-7.9,7.87-11.86,4.63-7,9.27-13.99,13.9-20.98,3.96-5.96,7.88-11.95,11.89-17.87,2.03-3,3.81-6.03,3.34-9.94-.52-4.32-2.59-7.45-6.36-9.28-2.08-1.49-6.65-1.5-8.76-.02h0c-.41,.23-.82,.47-1.23,.7-.69,.09-1.11,.59-1.5,1.13h0c-.21,.19-.45,.36-.64,.57-1.47,1.66-2.56,3.62-3.8,5.46-3,4.48-5.98,8.98-8.93,13.49-1.3,1.98-3.89,2.06-5.22,.95-1.49-1.24-1.91-3.49-.77-5.29,.83-1.31,1.39-2.73,1.72-4.27,1.09-5.13-1.9-11.14-6.35-12.73-.53-.59-1.21-.72-1.93-.67-1.5-.6-3-.64-4.5-.02h-.09l-.08,.03c-.74-.09-1.39,.15-1.95,.66h0c-1.94,.85-3.52,2.16-4.64,4.06-.94,1.09-1.79,2.24-2.35,3.61h0l-.6,.94h0c-.69,.47-1.08,1.17-1.33,1.97h0c-1.05,1.53-2.11,3.06-3.14,4.61-2.54,3.81-5.06,7.64-7.63,11.42-.94,1.38-2.47,1.8-3.96,1.24-1.78-.67-2.5-1.98-2.45-4.42,.42-.83,1.01-1.56,1.28-2.48,.64-.44,.97-1.12,1.24-1.84h0c.45-.67,.89-1.35,1.35-2.01,3.96-5.66,1.92-14.39-4.5-17.09-.54-.58-1.21-.72-1.94-.67-1.5-.61-3-.65-4.51-.02h-.08l-.08,.02c-.74-.06-1.42,.06-1.95,.67h0c-2.05,.75-3.54,2.25-4.76,4.07-3.8,5.7-7.59,11.42-11.34,17.16-2.61,3.99-2.95,8.27-.63,12.44,4.03,7.26,13.27,7.76,18.13,1.1Z"/></g></g></svg>